<svg xmlns="http://www.w3.org/2000/svg" width="14" height="14" viewBox="0 0 14 14"><g fill="#666"><path d="M8.7 7.7c-.3.2-.7 0-.9-.3l-1-2.1c-.2-.3-.1-.6.2-.8l2.8-1.4c.3-.2.7 0 .8.3l1.1 2.1c.2.3 0 .7-.3.8L8.7 7.7zM9.5 10.4c-.5.3-1.1.1-1.3-.4-.3-.5-.1-1.1.4-1.4l3.5-1.8c.5-.2 1.1-.1 1.3.4.3.5.1 1.1-.4 1.3l-3.5 1.9zM6.2 4c-.5.2-1.1 0-1.3-.5-.3-.5-.1-1.1.4-1.3L8.8.4c.5-.2 1.1-.1 1.3.4.3.5.1 1.1-.4 1.3L6.2 4zM1.9 10.6c-.6.3-1.3.1-1.6-.5l-.2-.3c-.3-.6-.1-1.3.5-1.6l4.6-2.4c.6-.3 1.3-.1 1.6.5l.1.2c.3.7.1 1.4-.5 1.7l-4.5 2.4zM14 12.8c0 .5-.4.9-.9.9H6.8c-.5 0-.9-.4-.9-.9s.4-.9.9-.9h6.3c.5 0 .9.4.9.9z"/></g></svg>